<svg width="1440" height="224" viewBox="0 0 1440 224" fill="none" xmlns="http://www.w3.org/2000/svg">
<g clip-path="url(#clip0_444_547)">
<path d="M0 0L48 16C96 32 192 64 288 58.7C384 53 480 11 576 21.3C672 32 768 96 864 101.3C960 107 1056 53 1152 32C1248 11 1344 21 1392 26.7L1440 32V224H1392C1344 224 1248 224 1152 224C1056 224 960 224 864 224C768 224 672 224 576 224C480 224 384 224 288 224C192 224 96 224 48 224H0V0Z" fill="#FA9370"/>
</g>
<defs>
<clipPath id="clip0_444_547">
<rect width="1440" height="224" fill="white"/>
</clipPath>
</defs>
</svg>
