<svg width="60" height="60" viewBox="0 0 60 60" fill="none" xmlns="http://www.w3.org/2000/svg">
<rect width="60" height="60" rx="20" fill="#FCC3AF"/>
<path d="M32.8293 20.1819H38.4396C39.2154 20.1819 39.8422 20.8087 39.8422 21.5845C39.8422 22.3603 39.2154 22.9871 38.4396 22.9871H33.4604C33.2325 24.1179 32.4567 25.0515 31.4267 25.4986V38.4155H38.4396C39.2154 38.4155 39.8422 39.0423 39.8422 39.8181C39.8422 40.5939 39.2154 41.2207 38.4396 41.2207H21.6086C20.8328 41.2207 20.206 40.5939 20.206 39.8181C20.206 39.0423 20.8328 38.4155 21.6086 38.4155H28.6215V25.4986C27.5915 25.0471 26.8157 24.1135 26.5878 22.9871H21.6086C20.8328 22.9871 20.206 22.3603 20.206 21.5845C20.206 20.8087 20.8328 20.1819 21.6086 20.1819H27.2189C27.8589 19.3316 28.8757 18.7793 30.0241 18.7793C31.1725 18.7793 32.1893 19.3316 32.8293 20.1819ZM35.2663 32.8052H41.613L38.4396 27.3614L35.2663 32.8052ZM38.4396 37.0129C35.6827 37.0129 33.3903 35.5227 32.9169 33.5547C32.803 33.0725 32.9608 32.5772 33.2106 32.1477L37.3833 24.9945C37.6024 24.6176 38.0057 24.3896 38.4396 24.3896C38.8735 24.3896 39.2768 24.6219 39.4959 24.9945L43.6686 32.1477C43.9185 32.5772 44.0763 33.0725 43.9623 33.5547C43.4889 35.5227 41.1966 37.0129 38.4396 37.0129ZM21.556 27.3614L18.3826 32.8052H24.7337L21.556 27.3614ZM16.0377 33.5547C15.9237 33.0725 16.0815 32.5772 16.3314 32.1477L20.5041 24.9945C20.7232 24.6176 21.1265 24.3896 21.5604 24.3896C21.9943 24.3896 22.3975 24.6219 22.6167 24.9945L26.7894 32.1477C27.0392 32.5772 27.197 33.0725 27.0831 33.5547C26.6053 35.5227 24.313 37.0129 21.556 37.0129C18.799 37.0129 16.5111 35.5227 16.0377 33.5547Z" fill="#392F5A"/>
</svg>
