<svg width="60" height="60" viewBox="0 0 60 60" fill="none" xmlns="http://www.w3.org/2000/svg">
<rect width="60" height="60" rx="20" fill="#FCC3AF"/>
<path d="M17 21.5C17 20.3065 17.4741 19.1619 18.318 18.318C19.1619 17.4741 20.3065 17 21.5 17H38.5C39.6935 17 40.8381 17.4741 41.682 18.318C42.5259 19.1619 43 20.3065 43 21.5V23H17V21.5ZM17 25V38.5C17 39.6935 17.4741 40.8381 18.318 41.682C19.1619 42.5259 20.3065 43 21.5 43H38.5C39.6935 43 40.8381 42.5259 41.682 41.682C42.5259 40.8381 43 39.6935 43 38.5V25H17ZM24.5 32C24.1022 32 23.7206 31.842 23.4393 31.5607C23.158 31.2794 23 30.8978 23 30.5C23 30.1022 23.158 29.7206 23.4393 29.4393C23.7206 29.158 24.1022 29 24.5 29C24.8978 29 25.2794 29.158 25.5607 29.4393C25.842 29.7206 26 30.1022 26 30.5C26 30.8978 25.842 31.2794 25.5607 31.5607C25.2794 31.842 24.8978 32 24.5 32ZM26 35.5C26 35.8978 25.842 36.2794 25.5607 36.5607C25.2794 36.842 24.8978 37 24.5 37C24.1022 37 23.7206 36.842 23.4393 36.5607C23.158 36.2794 23 35.8978 23 35.5C23 35.1022 23.158 34.7206 23.4393 34.4393C23.7206 34.158 24.1022 34 24.5 34C24.8978 34 25.2794 34.158 25.5607 34.4393C25.842 34.7206 26 35.1022 26 35.5ZM30 37C29.6022 37 29.2206 36.842 28.9393 36.5607C28.658 36.2794 28.5 35.8978 28.5 35.5C28.5 35.1022 28.658 34.7206 28.9393 34.4393C29.2206 34.158 29.6022 34 30 34C30.3978 34 30.7794 34.158 31.0607 34.4393C31.342 34.7206 31.5 35.1022 31.5 35.5C31.5 35.8978 31.342 36.2794 31.0607 36.5607C30.7794 36.842 30.3978 37 30 37ZM31.5 30.5C31.5 30.8978 31.342 31.2794 31.0607 31.5607C30.7794 31.842 30.3978 32 30 32C29.6022 32 29.2206 31.842 28.9393 31.5607C28.658 31.2794 28.5 30.8978 28.5 30.5C28.5 30.1022 28.658 29.7206 28.9393 29.4393C29.2206 29.158 29.6022 29 30 29C30.3978 29 30.7794 29.158 31.0607 29.4393C31.342 29.7206 31.5 30.1022 31.5 30.5ZM35.5 32C35.1022 32 34.7206 31.842 34.4393 31.5607C34.158 31.2794 34 30.8978 34 30.5C34 30.1022 34.158 29.7206 34.4393 29.4393C34.7206 29.158 35.1022 29 35.5 29C35.8978 29 36.2794 29.158 36.5607 29.4393C36.842 29.7206 37 30.1022 37 30.5C37 30.8978 36.842 31.2794 36.5607 31.5607C36.2794 31.842 35.8978 32 35.5 32Z" fill="#392F5A"/>
</svg>
