<svg width="32" height="32" viewBox="0 0 32 32" fill="none" xmlns="http://www.w3.org/2000/svg">
<path d="M26.8889 2H5.11111C3.4 2 2 3.39999 2 5.11109V26.8887C2 28.6014 3.4 29.9998 5.11111 29.9998H16V19.111H12.8889V15.261H16V12.0722C16 8.70595 17.8853 6.34153 21.8582 6.34153L24.6629 6.34464V10.3968H22.8009C21.2547 10.3968 20.6667 11.5573 20.6667 12.6337V15.2626H24.6613L23.7778 19.111H20.6667V29.9998H26.8889C28.6 29.9998 30 28.6014 30 26.8887V5.11109C30 3.39999 28.6 2 26.8889 2Z" fill="white"/>
</svg>
