<svg width="60" height="60" viewBox="0 0 60 60" fill="none" xmlns="http://www.w3.org/2000/svg">
<rect width="60" height="60" rx="20" fill="#FCC3AF"/>
<path d="M39.3338 16C39.7149 16.0001 40.0826 16.1399 40.3674 16.3931C40.6521 16.6463 40.834 16.9952 40.8786 17.3736L40.8895 17.5557V42.4461C40.889 42.8426 40.7372 43.2239 40.465 43.5123C40.1928 43.8006 39.8208 43.9741 39.425 43.9973C39.0292 44.0206 38.6394 43.8918 38.3354 43.6373C38.0313 43.3828 37.8359 43.0218 37.7891 42.6281L37.7782 42.4461V34.6678H36.2225C35.8415 34.6678 35.4737 34.5279 35.189 34.2747C34.9042 34.0215 34.7223 33.6726 34.6778 33.2942L34.6669 33.1122V23.7783C34.6669 20.3403 37.0003 16 39.3338 16ZM29.9999 16C30.3809 16.0001 30.7487 16.1399 31.0334 16.3931C31.3182 16.6463 31.5001 16.9952 31.5447 17.3736L31.5556 17.5557V25.3339C31.5554 26.7136 31.0969 28.0541 30.2522 29.1449C29.4075 30.2357 28.2243 31.0151 26.8886 31.3605V42.4461C26.8882 42.8426 26.7363 43.2239 26.4642 43.5123C26.192 43.8006 25.8199 43.9741 25.4241 43.9973C25.0283 44.0206 24.6385 43.8918 24.3345 43.6373C24.0304 43.3828 23.835 43.0218 23.7882 42.6281L23.7773 42.4461V31.3605C22.4946 31.0289 21.3511 30.2967 20.5132 29.2705C19.6752 28.2443 19.1865 26.9775 19.1181 25.6544L19.1104 25.3339V17.5557C19.1108 17.1591 19.2626 16.7778 19.5348 16.4895C19.807 16.2011 20.179 16.0276 20.5748 16.0044C20.9707 15.9812 21.3604 16.1099 21.6645 16.3644C21.9685 16.6189 22.1639 16.9799 22.2108 17.3736L22.2217 17.5557V25.3339C22.2217 25.88 22.3654 26.4166 22.6385 26.8895C22.9116 27.3625 23.3043 27.7552 23.7773 28.0283V17.5557C23.7777 17.1591 23.9296 16.7778 24.2018 16.4895C24.474 16.2011 24.846 16.0276 25.2418 16.0044C25.6376 15.9812 26.0274 16.1099 26.3314 16.3644C26.6355 16.6189 26.8309 16.9799 26.8777 17.3736L26.8886 17.5557L26.8902 28.0283C27.3243 27.7774 27.6913 27.4252 27.96 27.0019C28.2287 26.5785 28.3911 26.0965 28.4334 25.5968L28.4443 25.3339V17.5557C28.4443 17.1431 28.6082 16.7474 28.8999 16.4556C29.1916 16.1639 29.5873 16 29.9999 16Z" fill="#392F5A"/>
</svg>
