<svg width="80" height="80" viewBox="0 0 80 80" fill="none" xmlns="http://www.w3.org/2000/svg">
<path fill-rule="evenodd" clip-rule="evenodd" d="M40 70C43.9397 70 47.8407 69.224 51.4805 67.7164C55.1203 66.2087 58.4274 63.999 61.2132 61.2132C63.999 58.4274 66.2087 55.1203 67.7164 51.4805C69.224 47.8407 70 43.9397 70 40C70 36.0603 69.224 32.1593 67.7164 28.5195C66.2087 24.8797 63.999 21.5726 61.2132 18.7868C58.4274 16.001 55.1203 13.7913 51.4805 12.2836C47.8407 10.776 43.9397 10 40 10C32.0435 10 24.4129 13.1607 18.7868 18.7868C13.1607 24.4129 10 32.0435 10 40C10 47.9565 13.1607 55.5871 18.7868 61.2132C24.4129 66.8393 32.0435 70 40 70ZM39.2267 52.1333L55.8933 32.1333L50.7733 27.8667L36.44 45.0633L29.0233 37.6433L24.31 42.3567L34.31 52.3567L36.89 54.9367L39.2267 52.1333Z" fill="#FCC3AF"/>
</svg>
