<svg width="32" height="32" viewBox="0 0 32 32" fill="none" xmlns="http://www.w3.org/2000/svg">
<path d="M15.9997 11.3311C13.429 11.3311 11.3311 13.429 11.3311 15.9996C11.3311 18.5703 13.429 20.6682 15.9997 20.6682C18.5703 20.6682 20.6682 18.5703 20.6682 15.9996C20.6682 13.429 18.5703 11.3311 15.9997 11.3311ZM30.0019 15.9996C30.0019 14.0664 30.0194 12.1506 29.9108 10.2209C29.8022 7.97942 29.2909 5.99013 27.6518 4.35107C26.0092 2.7085 24.0234 2.20067 21.782 2.0921C19.8487 1.98353 17.9329 2.00104 16.0032 2.00104C14.0699 2.00104 12.1541 1.98353 10.2244 2.0921C7.98289 2.20067 5.99358 2.712 4.3545 4.35107C2.71192 5.99363 2.20409 7.97942 2.09552 10.2209C1.98695 12.1541 2.00446 14.0699 2.00446 15.9996C2.00446 17.9294 1.98695 19.8486 2.09552 21.7784C2.20409 24.0198 2.71543 26.0091 4.3545 27.6482C5.99708 29.2908 7.98289 29.7986 10.2244 29.9072C12.1576 30.0157 14.0734 29.9982 16.0032 29.9982C17.9364 29.9982 19.8522 30.0157 21.782 29.9072C24.0234 29.7986 26.0127 29.2873 27.6518 27.6482C29.2944 26.0056 29.8022 24.0198 29.9108 21.7784C30.0229 19.8486 30.0019 17.9329 30.0019 15.9996ZM15.9997 23.1828C12.0245 23.1828 8.81644 19.9747 8.81644 15.9996C8.81644 12.0245 12.0245 8.81646 15.9997 8.81646C19.9748 8.81646 23.1829 12.0245 23.1829 15.9996C23.1829 19.9747 19.9748 23.1828 15.9997 23.1828ZM23.4771 10.1999C22.549 10.1999 21.7995 9.45038 21.7995 8.52227C21.7995 7.59417 22.549 6.84469 23.4771 6.84469C24.4052 6.84469 25.1547 7.59417 25.1547 8.52227C25.1549 8.74266 25.1117 8.96093 25.0275 9.16459C24.9433 9.36825 24.8198 9.55329 24.6639 9.70913C24.5081 9.86496 24.323 9.98852 24.1194 10.0727C23.9157 10.1569 23.6975 10.2001 23.4771 10.1999Z" fill="white"/>
</svg>
