<svg width="40" height="40" viewBox="0 0 40 40" fill="none" xmlns="http://www.w3.org/2000/svg">
<rect width="40" height="40" rx="10" fill="#FA9370"/>
<mask id="mask0_463_568" style="mask-type:luminance" maskUnits="userSpaceOnUse" x="10" y="9" width="20" height="22">
<path fill-rule="evenodd" clip-rule="evenodd" d="M20 29.0102C21.2155 29.0102 21.7155 29.6652 22.367 29.8107C23.0185 29.9567 23.5655 29.9967 24.1255 29.7502C25.235 29.2612 25.911 28.6792 26.7315 27.8097C28.2525 26.1977 29 23.9822 29 21.0147C29 18.0472 28.2 16.5132 26.9665 15.5102C25.7335 14.5072 25.0185 14.3152 23.5275 14.5072C22.0365 14.6992 21.2245 16.3017 20.004 16.3017C18.784 16.3017 17.2965 14.7217 16.003 14.5072C14.709 14.2922 14 14.5072 12.88 15.5102C11.76 16.5132 11 18.0752 11 21.0152C11 23.9542 11.776 26.1332 13.2965 27.7452C14.1165 28.6147 14.765 29.2617 15.8745 29.7502C16.4345 29.9972 17.0135 29.9572 17.642 29.8112C18.271 29.6662 18.771 29.0112 20 29.0112V29.0102Z" fill="white" stroke="white" stroke-width="2"/>
<path d="M20.0044 16.3015C20.3969 12.4335 22.0639 10.5 25.0049 10.5C25.2749 11.314 25.3449 12.1015 25.2139 12.8635C25.1524 13.225 24.9599 13.741 24.6374 14.411" stroke="white" stroke-width="2" stroke-linecap="round"/>
<path d="M15.1146 21.5C14.9761 22.173 14.9761 22.8655 15.1146 23.5785C15.2526 24.291 15.5471 24.841 15.9981 25.2285" stroke="black" stroke-width="2" stroke-linecap="round"/>
</mask>
<g mask="url(#mask0_463_568)">
<path d="M8 8.5H32V32.5H8V8.5Z" fill="#392F5A"/>
</g>
<rect x="12.5" y="20.5" width="6.5" height="6" fill="#392F5A"/>
<path d="M26.75 25C26.5 26.25 25.75 27 25 27.5" stroke="#FA9370" stroke-width="1.5" stroke-linecap="round"/>
<path d="M13.6207 10.843L12.7269 9.22784C12.2055 8.2858 10.8512 8.2858 10.3299 9.22784L9.43604 10.843L7.82086 11.7369C6.87882 12.2582 6.87882 13.6125 7.82086 14.1338L9.43604 15.0277L10.3299 16.6429C10.8512 17.5849 12.2055 17.5849 12.7269 16.6429L13.6207 15.0277L15.2359 14.1338C16.1779 13.6125 16.1779 12.2582 15.2359 11.7369L13.6207 10.843Z" fill="#392F5A" stroke="#FA9370" stroke-width="1.5" stroke-linecap="round" stroke-linejoin="round"/>
<path d="M18.0713 17.4238L17.1776 16.9292L16.6831 16.0356C16.2561 15.264 15.1469 15.264 14.7199 16.0356L14.2254 16.9292L13.3317 17.4238C12.5602 17.8507 12.5602 18.96 13.3317 19.3869L14.2254 19.8815L14.7199 20.7751C15.1469 21.5467 16.2561 21.5467 16.6831 20.7751L17.1776 19.8815L18.0713 19.3869C18.8428 18.96 18.8428 17.8507 18.0713 17.4238Z" fill="#392F5A" stroke="#FA9370" stroke-width="1.5" stroke-linecap="round" stroke-linejoin="round"/>
</svg>
