<svg width="241" height="64" viewBox="0 0 241 64" fill="none" xmlns="http://www.w3.org/2000/svg">
<rect x="0.5" y="0.627441" width="62.7451" height="62.7451" rx="15.6863" fill="#FA9370"/>
<mask id="mask0_463_562" style="mask-type:luminance" maskUnits="userSpaceOnUse" x="16" y="15" width="32" height="35">
<path fill-rule="evenodd" clip-rule="evenodd" d="M31.8725 46.1335C33.7792 46.1335 34.5635 47.161 35.5855 47.3892C36.6074 47.6182 37.4655 47.681 38.3439 47.2943C40.0843 46.5273 41.1447 45.6143 42.4317 44.2504C44.8176 41.7218 45.9902 38.2465 45.9902 33.5916C45.9902 28.9367 44.7353 26.5304 42.8004 24.9571C40.8663 23.3837 39.7447 23.0826 37.4059 23.3837C35.067 23.6849 33.7933 26.1986 31.8788 26.1986C29.9651 26.1986 27.6317 23.7202 25.6027 23.3837C23.5729 23.0465 22.4608 23.3837 20.7039 24.9571C18.947 26.5304 17.7549 28.9806 17.7549 33.5924C17.7549 38.2026 18.9721 41.6206 21.3572 44.1492C22.6435 45.5131 23.6608 46.528 25.4012 47.2943C26.2796 47.6818 27.1878 47.619 28.1737 47.39C29.1604 47.1626 29.9447 46.1351 31.8725 46.1351V46.1335Z" fill="white" stroke="white" stroke-width="3.13725"/>
<path d="M31.8794 26.1985C32.4951 20.1311 35.11 17.0981 39.7233 17.0981C40.1468 18.375 40.2566 19.6103 40.0512 20.8056C39.9547 21.3727 39.6527 22.1821 39.1468 23.233" stroke="white" stroke-width="3.13725" stroke-linecap="round"/>
<path d="M24.2093 34.353C23.9921 35.4087 23.9921 36.495 24.2093 37.6134C24.4258 38.7311 24.8878 39.5938 25.5952 40.2017" stroke="black" stroke-width="3.13725" stroke-linecap="round"/>
</mask>
<g mask="url(#mask0_463_562)">
<path d="M13.0488 13.9609H50.6959V51.608H13.0488V13.9609Z" fill="#392F5A"/>
</g>
<rect x="20.1079" y="32.7844" width="10.1961" height="9.41177" fill="#392F5A"/>
<path d="M42.4609 39.843C42.0688 41.8038 40.8923 42.9803 39.7158 43.7646" stroke="#FA9370" stroke-width="2.35294" stroke-linecap="round"/>
<path d="M19.9481 14.1703C19.3547 13.098 17.8132 13.098 17.2198 14.1703M19.9481 14.1703L17.2198 14.1703M19.9481 14.1703C21.2013 16.4349 23.0672 18.3008 25.3319 19.5541C26.4041 20.1474 26.4041 21.6889 25.3319 22.2823C23.0672 23.5356 21.2013 25.4014 19.9481 27.6661C19.3547 28.7383 17.8132 28.7383 17.2198 27.6661C15.9666 25.4014 14.1007 23.5356 11.836 22.2823M19.9481 14.1703L11.836 22.2823M17.2198 14.1703C15.9666 16.4349 14.1007 18.3008 11.836 19.5541C10.7638 20.1474 10.7638 21.6889 11.836 22.2823M17.2198 14.1703L11.836 22.2823" fill="#392F5A" stroke="#FA9370" stroke-width="2.35294" stroke-linecap="round" stroke-linejoin="round"/>
<path d="M21.3751 29.1843L20.8647 28.2619C22.1387 27.5568 23.1884 26.5071 23.8935 25.2331C24.4313 24.2612 25.8286 24.2612 26.3664 25.2331C27.0715 26.5071 28.1212 27.5568 29.3952 28.2619M21.3751 29.1843L29.3952 28.2619M21.3751 29.1843L20.8647 28.2619C19.8928 28.7997 19.8928 30.197 20.8647 30.7348C22.1387 31.4399 23.1884 32.4896 23.8935 33.7637C24.4313 34.7355 25.8286 34.7356 26.3664 33.7637C27.0715 32.4896 28.1212 31.4399 29.3952 30.7348C30.3671 30.197 30.3671 28.7997 29.3952 28.2619M21.3751 29.1843L29.3952 28.2619M24.3077 32.6244L24.7259 32.8558L24.3077 32.6244ZM28.256 28.6761L28.4874 29.0943L28.256 28.6761Z" fill="#392F5A" stroke="#FA9370" stroke-width="2.35294" stroke-linecap="round" stroke-linejoin="round"/>
<path d="M76.769 21.5034H82.9446C83.7572 21.5034 84.4614 21.7472 85.0573 22.2347C85.7073 22.7222 86.1136 23.3723 86.2761 24.1849C87.9555 22.3972 89.8515 21.5034 91.9641 21.5034C94.4019 21.5034 96.4875 22.641 98.221 24.9162C100.009 27.1914 100.957 29.9541 101.065 33.2044V40.5176C101.065 41.2218 101.309 41.8448 101.796 42.3865C102.284 42.8741 102.88 43.1178 103.584 43.1178H103.665V45.7993H101.065H94.0768H91.3953V43.1178H91.4766C92.1808 43.1178 92.7767 42.8741 93.2643 42.3865C93.806 41.8448 94.0768 41.2218 94.0768 40.5176V33.6107C94.0768 31.0105 93.6976 28.7895 92.9392 26.9476C92.1808 25.1058 91.2599 24.1849 90.1765 24.1849C89.1472 24.1849 88.2534 25.1058 87.495 26.9476C86.7908 28.7895 86.4386 31.0105 86.4386 33.6107V40.5176C86.4386 41.2218 86.6824 41.8448 87.17 42.3865C87.6575 42.8741 88.2534 43.1178 88.9576 43.1178H89.0389V45.7993H76.769V43.1178H76.8503C77.5545 43.1178 78.1504 42.8741 78.638 42.3865C79.1797 41.8448 79.4505 41.2218 79.4505 40.5176V26.7851C79.4505 26.0809 79.1797 25.485 78.638 24.9975C78.1504 24.4557 77.5545 24.1849 76.8503 24.1849H76.769V21.5034ZM126.845 45.7993H123.351C122.538 45.7993 121.807 45.5555 121.157 45.068C120.507 44.5263 120.101 43.8762 119.938 43.1178C118.259 44.9055 116.363 45.7993 114.25 45.7993C111.813 45.7993 109.7 44.6617 107.912 42.3865C106.179 40.1113 105.285 37.3215 105.231 34.017V26.7851C105.231 26.0809 104.96 25.485 104.418 24.9975C103.931 24.4557 103.335 24.1849 102.63 24.1849H102.549V21.5034H105.231H112.219H114.819V24.1849H114.738C114.034 24.1849 113.438 24.4557 112.95 24.9975C112.463 25.485 112.219 26.0809 112.219 26.7851V33.6107C112.219 36.211 112.571 38.4591 113.275 40.3551C114.034 42.1969 114.927 43.1178 115.957 43.1178C117.04 43.1178 117.961 42.1969 118.719 40.3551C119.478 38.4591 119.857 36.211 119.857 33.6107V26.7851C119.857 26.0809 119.586 25.485 119.044 24.9975C118.557 24.4557 117.961 24.1849 117.257 24.1849H117.175V21.5034H129.445V24.1849H129.364C128.66 24.1849 128.064 24.4557 127.576 24.9975C127.089 25.485 126.845 26.0809 126.845 26.7851V40.5176C126.845 41.2218 127.089 41.8448 127.576 42.3865C128.064 42.8741 128.66 43.1178 129.364 43.1178H129.445V45.7993H126.845ZM133.8 24.1849H131.118V21.5034H133.8V17.8468C133.8 17.1426 133.529 16.5467 132.987 16.0592C132.499 15.5174 131.904 15.2466 131.199 15.2466H131.118V12.5651H137.294C138.215 12.5651 139.027 12.9172 139.731 13.6214C140.436 14.2715 140.788 15.0841 140.788 16.0592V21.5034H146.557V24.1849H140.788V34.9921C140.788 36.4006 140.788 37.4569 140.788 38.1611C140.788 38.8112 140.869 39.5154 141.031 40.2738C141.194 40.9781 141.384 41.4656 141.6 41.7365C141.817 42.0073 142.169 42.2782 142.657 42.549C143.144 42.8199 143.686 42.9824 144.282 43.0366C144.932 43.0366 145.799 43.0366 146.882 43.0366V45.7993C146.449 45.7993 145.853 45.7993 145.094 45.7993C143.794 45.7993 142.819 45.7993 142.169 45.7993C141.519 45.7993 140.706 45.7451 139.731 45.6368C138.756 45.5285 138.025 45.3659 137.537 45.1493C137.104 44.8784 136.589 44.5263 135.994 44.0929C135.398 43.6054 134.964 43.0366 134.693 42.3865C134.477 41.6823 134.26 40.8426 134.043 39.8675C133.881 38.8383 133.8 37.6465 133.8 36.2922V24.1849ZM148.425 21.5034H154.6C156.117 21.5034 157.173 22.1805 157.769 23.5348C158.69 22.1264 159.882 21.4763 161.345 21.5846C162.861 21.693 164.432 22.5326 166.057 24.1036L165.732 29.4666H163.62C163.078 25.6746 162.049 23.8598 160.532 24.0224C159.774 24.0765 159.178 25.0787 158.744 27.0289C158.311 28.9791 158.094 31.173 158.094 33.6107V40.5176C158.094 41.2218 158.338 41.8448 158.826 42.3865C159.313 42.8741 159.909 43.1178 160.613 43.1178H160.694V45.7993H148.425V43.1178H148.506C149.21 43.1178 149.806 42.8741 150.294 42.3865C150.835 41.8448 151.106 41.2218 151.106 40.5176V26.7851C151.106 26.0809 150.835 25.485 150.294 24.9975C149.806 24.4557 149.21 24.1849 148.506 24.1849H148.425V21.5034ZM171.285 13.6214C171.989 12.9172 172.801 12.5651 173.722 12.5651C174.697 12.5651 175.537 12.9172 176.241 13.6214C176.946 14.2715 177.298 15.0841 177.298 16.0592C177.298 17.0342 176.946 17.8739 176.241 18.5781C175.537 19.2282 174.697 19.5532 173.722 19.5532C172.801 19.5532 171.989 19.2282 171.285 18.5781C170.635 17.8739 170.309 17.0342 170.309 16.0592C170.309 15.0841 170.635 14.2715 171.285 13.6214ZM167.628 21.5034H173.804C174.724 21.5034 175.537 21.8555 176.241 22.5597C176.946 23.2098 177.298 24.0224 177.298 24.9975V40.5176C177.298 41.2218 177.541 41.8177 178.029 42.3053C178.516 42.7928 179.112 43.0366 179.817 43.0366H179.898V45.7993H167.628V43.0366H167.709C168.413 43.0366 169.009 42.7928 169.497 42.3053C170.039 41.8177 170.309 41.2218 170.309 40.5176V26.7851C170.309 26.0809 170.039 25.485 169.497 24.9975C169.009 24.4557 168.413 24.1849 167.709 24.1849H167.628V21.5034ZM201.111 37.7548H203.224L203.549 43.1178C200.949 44.9055 197.996 45.7993 194.692 45.7993C191.875 45.7993 189.41 45.2305 187.297 44.0929C185.239 42.9553 183.695 41.5469 182.666 39.8675C181.691 38.134 181.149 36.2651 181.041 34.2608C180.986 32.2023 181.366 30.2792 182.178 28.4915C182.991 26.7039 184.345 25.16 186.241 23.8599C188.137 22.5597 190.385 21.8013 192.985 21.5846C193.744 21.4763 194.313 21.4492 194.692 21.5034C198.7 21.6659 201.49 23.1827 203.061 26.0538C204.47 28.654 204.307 31.173 202.574 33.6107C200.244 36.9152 196.019 38.2966 189.898 37.7548C189.573 37.7007 189.22 37.6736 188.841 37.6736C189.383 39.2987 190.196 40.6259 191.279 41.6552C192.417 42.6303 193.771 43.1178 195.342 43.1178C197.184 43.1178 198.538 42.5761 199.405 41.4927C200.271 40.3551 200.84 39.1091 201.111 37.7548ZM193.392 25.3225C191.929 25.4308 190.764 25.9996 189.898 27.0289C189.085 28.0581 188.57 29.2499 188.354 30.6042C188.191 31.9043 188.191 33.367 188.354 34.9921C192.146 35.588 194.746 34.5587 196.154 31.9043C197.129 30.0083 197.129 28.2748 196.154 26.7039C195.504 25.6746 194.583 25.2141 193.392 25.3225Z" fill="#392F5A"/>
</svg>
