<svg width="241" height="64" viewBox="0 0 241 64" fill="none" xmlns="http://www.w3.org/2000/svg">
<rect x="0.5" y="0.626953" width="62.7451" height="62.7451" rx="15.6863" fill="#FA9370"/>
<mask id="mask0_530_1319" style="mask-type:luminance" maskUnits="userSpaceOnUse" x="16" y="15" width="32" height="35">
<path fill-rule="evenodd" clip-rule="evenodd" d="M31.8725 46.1333C33.7792 46.1333 34.5635 47.1607 35.5855 47.389C36.6074 47.618 37.4655 47.6807 38.3439 47.2941C40.0843 46.527 41.1447 45.6141 42.4317 44.2502C44.8176 41.7215 45.9902 38.2462 45.9902 33.5913C45.9902 28.9364 44.7353 26.5302 42.8004 24.9568C40.8663 23.3835 39.7447 23.0823 37.4059 23.3835C35.067 23.6847 33.7933 26.1984 31.8788 26.1984C29.9651 26.1984 27.6317 23.72 25.6027 23.3835C23.5729 23.0462 22.4608 23.3835 20.7039 24.9568C18.947 26.5302 17.7549 28.9803 17.7549 33.5921C17.7549 38.2023 18.9721 41.6203 21.3572 44.149C22.6435 45.5129 23.6608 46.5278 25.4012 47.2941C26.2796 47.6815 27.1878 47.6188 28.1737 47.3898C29.1604 47.1623 29.9447 46.1349 31.8725 46.1349V46.1333Z" fill="white" stroke="white" stroke-width="3.13725"/>
<path d="M31.8794 26.198C32.4951 20.1306 35.11 17.0977 39.7233 17.0977C40.1468 18.3745 40.2566 19.6098 40.0512 20.8051C39.9547 21.3722 39.6527 22.1816 39.1468 23.2326" stroke="white" stroke-width="3.13725" stroke-linecap="round"/>
<path d="M24.2093 34.3525C23.9921 35.4082 23.9921 36.4945 24.2093 37.6129C24.4258 38.7306 24.8878 39.5933 25.5952 40.2012" stroke="black" stroke-width="3.13725" stroke-linecap="round"/>
</mask>
<g mask="url(#mask0_530_1319)">
<path d="M13.0488 13.96H50.6959V51.607H13.0488V13.96Z" fill="#392F5A"/>
</g>
<rect x="20.1079" y="32.7842" width="10.1961" height="9.41177" fill="#392F5A"/>
<path d="M42.4609 39.8428C42.0688 41.8036 40.8923 42.98 39.7158 43.7643" stroke="#FA9370" stroke-width="2.35294" stroke-linecap="round"/>
<path d="M19.9481 14.17C19.3547 13.0978 17.8132 13.0978 17.2198 14.17M19.9481 14.17L17.2198 14.17M19.9481 14.17C21.2013 16.4347 23.0672 18.3005 25.3319 19.5538C26.4041 20.1472 26.4041 21.6887 25.3319 22.282C23.0672 23.5353 21.2013 25.4012 19.9481 27.6658C19.3547 28.7381 17.8132 28.7381 17.2198 27.6658C15.9666 25.4012 14.1007 23.5353 11.836 22.282M19.9481 14.17L11.836 22.282M17.2198 14.17C15.9666 16.4347 14.1007 18.3005 11.836 19.5538C10.7638 20.1472 10.7638 21.6887 11.836 22.282M17.2198 14.17L11.836 22.282" fill="#392F5A" stroke="#FA9370" stroke-width="2.35294" stroke-linecap="round" stroke-linejoin="round"/>
<path d="M21.3751 29.1846L20.8647 28.2621C22.1387 27.5571 23.1884 26.5074 23.8935 25.2333C24.4313 24.2614 25.8286 24.2614 26.3664 25.2333C27.0715 26.5074 28.1212 27.5571 29.3952 28.2621M21.3751 29.1846L29.3952 28.2621M21.3751 29.1846L20.8647 28.2621C19.8928 28.8 19.8928 30.1972 20.8647 30.7351C22.1387 31.4401 23.1884 32.4898 23.8935 33.7639C24.4313 34.7358 25.8286 34.7358 26.3664 33.7639C27.0715 32.4898 28.1212 31.4401 29.3952 30.7351C30.3671 30.1972 30.3671 28.8 29.3952 28.2621M21.3751 29.1846L29.3952 28.2621M24.3077 32.6246L24.7259 32.856L24.3077 32.6246ZM28.256 28.6764L28.4874 29.0945L28.256 28.6764Z" fill="#392F5A" stroke="#FA9370" stroke-width="2.35294" stroke-linecap="round" stroke-linejoin="round"/>
<path d="M76.9939 18.599H84.5939C85.5939 18.599 86.4606 18.899 87.1939 19.499C87.9939 20.099 88.4939 20.899 88.6939 21.899C90.7606 19.699 93.0939 18.599 95.6939 18.599C98.6939 18.599 101.261 19.999 103.394 22.799C105.594 25.599 106.761 28.999 106.894 32.999V41.999C106.894 42.8657 107.194 43.6324 107.794 44.299C108.394 44.899 109.127 45.199 109.994 45.199H110.094V48.499H106.894H98.2939H94.9939V45.199H95.0939C95.9606 45.199 96.6939 44.899 97.2939 44.299C97.9606 43.6324 98.2939 42.8657 98.2939 41.999V33.499C98.2939 30.299 97.8273 27.5657 96.8939 25.299C95.9606 23.0324 94.8273 21.899 93.4939 21.899C92.2273 21.899 91.1273 23.0324 90.1939 25.299C89.3273 27.5657 88.8939 30.299 88.8939 33.499V41.999C88.8939 42.8657 89.1939 43.6324 89.7939 44.299C90.3939 44.899 91.1273 45.199 91.9939 45.199H92.0939V48.499H76.9939V45.199H77.0939C77.9606 45.199 78.6939 44.899 79.2939 44.299C79.9606 43.6324 80.2939 42.8657 80.2939 41.999V25.099C80.2939 24.2324 79.9606 23.499 79.2939 22.899C78.6939 22.2324 77.9606 21.899 77.0939 21.899H76.9939V18.599ZM138.621 48.499H134.321C133.321 48.499 132.421 48.199 131.621 47.599C130.821 46.9324 130.321 46.1324 130.121 45.199C128.054 47.399 125.721 48.499 123.121 48.499C120.121 48.499 117.521 47.099 115.321 44.299C113.187 41.499 112.087 38.0657 112.021 33.999V25.099C112.021 24.2324 111.687 23.499 111.021 22.899C110.421 22.2324 109.687 21.899 108.821 21.899H108.721V18.599H112.021H120.621H123.821V21.899H123.721C122.854 21.899 122.121 22.2324 121.521 22.899C120.921 23.499 120.621 24.2324 120.621 25.099V33.499C120.621 36.699 121.054 39.4657 121.921 41.799C122.854 44.0657 123.954 45.199 125.221 45.199C126.554 45.199 127.687 44.0657 128.621 41.799C129.554 39.4657 130.021 36.699 130.021 33.499V25.099C130.021 24.2324 129.687 23.499 129.021 22.899C128.421 22.2324 127.687 21.899 126.821 21.899H126.721V18.599H141.821V21.899H141.721C140.854 21.899 140.121 22.2324 139.521 22.899C138.921 23.499 138.621 24.2324 138.621 25.099V41.999C138.621 42.8657 138.921 43.6324 139.521 44.299C140.121 44.899 140.854 45.199 141.721 45.199H141.821V48.499H138.621ZM147.179 21.899H143.879V18.599H147.179V14.099C147.179 13.2324 146.846 12.499 146.179 11.899C145.579 11.2324 144.846 10.899 143.979 10.899H143.879V7.59902H151.479C152.612 7.59902 153.612 8.03236 154.479 8.89902C155.346 9.69902 155.779 10.699 155.779 11.899V18.599H162.879V21.899H155.779V35.199C155.779 36.9324 155.779 38.2324 155.779 39.099C155.779 39.899 155.879 40.7657 156.079 41.699C156.279 42.5657 156.512 43.1657 156.779 43.499C157.046 43.8324 157.479 44.1657 158.079 44.499C158.679 44.8324 159.346 45.0324 160.079 45.099C160.879 45.099 161.946 45.099 163.279 45.099V48.499C162.746 48.499 162.012 48.499 161.079 48.499C159.479 48.499 158.279 48.499 157.479 48.499C156.679 48.499 155.679 48.4324 154.479 48.299C153.279 48.1657 152.379 47.9657 151.779 47.699C151.246 47.3657 150.612 46.9324 149.879 46.399C149.146 45.799 148.612 45.099 148.279 44.299C148.012 43.4324 147.746 42.399 147.479 41.199C147.279 39.9324 147.179 38.4657 147.179 36.799V21.899ZM165.178 18.599H172.778C174.644 18.599 175.944 19.4324 176.678 21.099C177.811 19.3657 179.278 18.5657 181.078 18.699C182.944 18.8324 184.878 19.8657 186.878 21.799L186.478 28.399H183.878C183.211 23.7324 181.944 21.499 180.078 21.699C179.144 21.7657 178.411 22.999 177.878 25.399C177.344 27.799 177.078 30.499 177.078 33.499V41.999C177.078 42.8657 177.378 43.6324 177.978 44.299C178.578 44.899 179.311 45.199 180.178 45.199H180.278V48.499H165.178V45.199H165.278C166.144 45.199 166.878 44.899 167.478 44.299C168.144 43.6324 168.478 42.8657 168.478 41.999V25.099C168.478 24.2324 168.144 23.499 167.478 22.899C166.878 22.2324 166.144 21.899 165.278 21.899H165.178V18.599ZM193.31 8.89902C194.177 8.03236 195.177 7.59902 196.31 7.59902C197.51 7.59902 198.544 8.03236 199.41 8.89902C200.277 9.69902 200.71 10.699 200.71 11.899C200.71 13.099 200.277 14.1324 199.41 14.999C198.544 15.799 197.51 16.199 196.31 16.199C195.177 16.199 194.177 15.799 193.31 14.999C192.51 14.1324 192.11 13.099 192.11 11.899C192.11 10.699 192.51 9.69902 193.31 8.89902ZM188.81 18.599H196.41C197.544 18.599 198.544 19.0324 199.41 19.899C200.277 20.699 200.71 21.699 200.71 22.899V41.999C200.71 42.8657 201.01 43.599 201.61 44.199C202.21 44.799 202.944 45.099 203.81 45.099H203.91V48.499H188.81V45.099H188.91C189.777 45.099 190.51 44.799 191.11 44.199C191.777 43.599 192.11 42.8657 192.11 41.999V25.099C192.11 24.2324 191.777 23.499 191.11 22.899C190.51 22.2324 189.777 21.899 188.91 21.899H188.81V18.599ZM230.017 38.599H232.617L233.017 45.199C229.817 47.399 226.183 48.499 222.117 48.499C218.65 48.499 215.617 47.799 213.017 46.399C210.483 44.999 208.583 43.2657 207.317 41.199C206.117 39.0657 205.45 36.7657 205.317 34.299C205.25 31.7657 205.717 29.399 206.717 27.199C207.717 24.999 209.383 23.099 211.717 21.499C214.05 19.899 216.817 18.9657 220.017 18.699C220.95 18.5657 221.65 18.5324 222.117 18.599C227.05 18.799 230.483 20.6657 232.417 24.199C234.15 27.399 233.95 30.499 231.817 33.499C228.95 37.5657 223.75 39.2657 216.217 38.599C215.817 38.5324 215.383 38.499 214.917 38.499C215.583 40.499 216.583 42.1324 217.917 43.399C219.317 44.599 220.983 45.199 222.917 45.199C225.183 45.199 226.85 44.5324 227.917 43.199C228.983 41.799 229.683 40.2657 230.017 38.599ZM220.517 23.299C218.717 23.4324 217.283 24.1324 216.217 25.399C215.217 26.6657 214.583 28.1324 214.317 29.799C214.117 31.399 214.117 33.199 214.317 35.199C218.983 35.9324 222.183 34.6657 223.917 31.399C225.117 29.0657 225.117 26.9324 223.917 24.999C223.117 23.7324 221.983 23.1657 220.517 23.299Z" fill="#392F5A"/>
</svg>
